<svg width="232" height="232" viewBox="0 0 232 232" fill="none" xmlns="http://www.w3.org/2000/svg">
<g filter="url(#filter0_b_246_918)">
<path d="M231.191 115.538C231.191 179.298 179.524 230.986 115.79 230.986C52.0554 230.986 0.388672 179.298 0.388672 115.538C0.388672 51.7785 52.0554 0.0908203 115.79 0.0908203C179.524 0.0908203 231.191 51.7785 231.191 115.538Z" fill="#D9D9D9" fill-opacity="0.2"/>
</g>
<path d="M200.188 117.539H210.956V127.326H200.188V125.692H209.934L209.505 126.1V118.765L209.934 119.194H200.188V117.539Z" fill="white"/>
<path d="M197.367 137.897C197.566 136.853 197.971 135.967 198.581 135.237C199.205 134.51 199.97 133.991 200.875 133.678C201.781 133.365 202.756 133.309 203.799 133.508C204.856 133.71 205.742 134.121 206.455 134.743C207.166 135.378 207.673 136.14 207.975 137.03C208.287 137.935 208.344 138.91 208.145 139.954C207.946 140.998 207.535 141.883 206.911 142.61C206.298 143.353 205.546 143.875 204.657 144.177C203.765 144.492 202.79 144.549 201.733 144.347C200.689 144.148 199.804 143.736 199.077 143.112C198.347 142.501 197.827 141.736 197.517 140.817C197.218 139.914 197.168 138.941 197.367 137.897ZM198.792 138.169C198.652 138.905 198.688 139.585 198.902 140.208C199.127 140.847 199.509 141.392 200.047 141.841C200.586 142.29 201.249 142.59 202.039 142.741C202.842 142.894 203.57 142.86 204.222 142.638C204.888 142.418 205.436 142.051 205.867 141.537C206.309 141.039 206.6 140.422 206.74 139.686C206.878 138.963 206.835 138.282 206.61 137.643C206.396 137.02 206.02 136.483 205.481 136.034C204.956 135.587 204.292 135.287 203.489 135.134C202.7 134.983 201.972 135.018 201.306 135.237C200.64 135.457 200.087 135.816 199.645 136.314C199.214 136.828 198.93 137.446 198.792 138.169Z" fill="white"/>
<path d="M192.121 152.025C192.507 151.02 193.07 150.2 193.809 149.565C194.557 148.947 195.398 148.562 196.332 148.41C197.278 148.263 198.254 148.382 199.258 148.768C200.263 149.154 201.061 149.716 201.654 150.454C202.246 151.192 202.607 152.038 202.737 152.993C202.875 153.965 202.751 154.953 202.365 155.958C202.033 156.823 201.562 157.539 200.95 158.107C200.338 158.675 199.617 159.033 198.787 159.181L198.47 157.724C199.098 157.571 199.628 157.293 200.06 156.89C200.492 156.486 200.818 155.999 201.037 155.426C201.306 154.727 201.388 154.036 201.285 153.354C201.19 152.69 200.917 152.09 200.466 151.552C200.029 151.019 199.429 150.606 198.665 150.313C197.902 150.02 197.174 149.923 196.48 150.021C195.798 150.124 195.193 150.388 194.666 150.813C194.146 151.255 193.752 151.826 193.483 152.526C193.264 153.098 193.173 153.676 193.212 154.26C193.263 154.849 193.471 155.41 193.835 155.944L192.626 156.815C192.12 156.154 191.824 155.405 191.736 154.569C191.661 153.738 191.79 152.89 192.121 152.025Z" fill="white"/>
<path d="M187.47 160.201L196.74 165.68L195.888 167.123L186.438 167.092L186.781 166.511L191.317 174.865L190.548 176.167L181.267 170.706L182.025 169.421L189.695 173.954L189.409 174.117L185.295 166.416L185.669 165.783L194.512 165.716L194.388 166.046L186.701 161.503L187.47 160.201Z" fill="white"/>
<path d="M173.71 177.173C174.425 176.387 175.233 175.842 176.135 175.539C177.046 175.246 177.97 175.202 178.905 175.408C179.841 175.615 180.701 176.076 181.487 176.791C182.283 177.515 182.823 178.329 183.106 179.232C183.381 180.145 183.415 181.06 183.207 181.976C183.001 182.912 182.54 183.773 181.825 184.559C181.11 185.345 180.297 185.885 179.385 186.179C178.475 186.492 177.561 186.545 176.645 186.337C175.72 186.14 174.859 185.679 174.063 184.955C173.278 184.239 172.738 183.426 172.444 182.514C172.141 181.612 172.097 180.688 172.313 179.742C172.529 178.816 172.995 177.959 173.71 177.173ZM174.783 178.15C174.279 178.704 173.955 179.303 173.812 179.946C173.67 180.609 173.711 181.272 173.935 181.937C174.159 182.601 174.569 183.204 175.163 183.745C175.768 184.295 176.406 184.646 177.079 184.798C177.761 184.958 178.42 184.932 179.056 184.719C179.693 184.525 180.263 184.15 180.767 183.596C181.262 183.052 181.581 182.448 181.723 181.786C181.866 181.142 181.826 180.488 181.601 179.824C181.387 179.168 180.978 178.566 180.373 178.016C179.779 177.475 179.141 177.124 178.458 176.963C177.776 176.803 177.116 176.819 176.479 177.013C175.843 177.227 175.278 177.605 174.783 178.15Z" fill="white"/>
<path d="M163.822 185.111L169.766 192.862L169.169 192.754L172.686 190.054L173.569 191.205L165.87 197.115L164.987 195.964L168.52 193.251L168.47 193.857L162.526 186.107L163.822 185.111Z" fill="white"/>
<path d="M149.692 193.177C150.491 192.736 151.32 192.519 152.18 192.527C153.04 192.535 153.864 192.788 154.652 193.287C155.429 193.792 156.1 194.557 156.665 195.583C157.244 196.633 157.543 197.612 157.561 198.52C157.574 199.446 157.355 200.275 156.903 201.007C156.45 201.739 155.813 202.332 154.99 202.786C154.084 203.286 153.167 203.528 152.239 203.51C151.3 203.5 150.43 203.248 149.63 202.756C148.818 202.271 148.146 201.545 147.613 200.579C147.087 199.625 146.835 198.674 146.858 197.728C146.868 196.789 147.12 195.919 147.612 195.118C148.092 194.324 148.785 193.677 149.692 193.177ZM152.747 187.08L159.861 199.981L158.483 200.742L156.983 198.022L155.976 195.941L154.692 194.035L151.297 187.88L152.747 187.08ZM150.499 194.388C149.855 194.744 149.362 195.203 149.019 195.766C148.664 196.335 148.485 196.97 148.483 197.672C148.481 198.373 148.674 199.075 149.062 199.779C149.457 200.495 149.948 201.033 150.535 201.393C151.129 201.766 151.765 201.959 152.443 201.975C153.108 201.996 153.763 201.83 154.407 201.474C155.051 201.119 155.547 200.65 155.895 200.069C156.244 199.488 156.419 198.847 156.421 198.145C156.43 197.456 156.237 196.753 155.842 196.037C155.454 195.334 154.963 194.796 154.369 194.423C153.775 194.051 153.142 193.863 152.472 193.86C151.801 193.857 151.143 194.033 150.499 194.388Z" fill="white"/>
<path d="M135.126 197.967C136.201 197.618 137.218 197.531 138.177 197.706C139.141 197.895 139.977 198.311 140.687 198.954C141.397 199.597 141.916 200.424 142.244 201.435C142.572 202.445 142.648 203.409 142.473 204.325C142.289 205.259 141.886 206.07 141.264 206.759C140.647 207.46 139.853 207.969 138.881 208.284C137.909 208.6 136.976 208.659 136.082 208.463C135.187 208.266 134.398 207.842 133.714 207.19C133.034 206.552 132.526 205.714 132.19 204.678C132.169 204.613 132.144 204.535 132.114 204.444C132.085 204.354 132.064 204.267 132.052 204.185L140.875 201.321L141.247 202.467L133.24 205.067L133.723 204.438C133.954 205.15 134.314 205.728 134.801 206.171C135.28 206.632 135.835 206.931 136.467 207.07C137.104 207.221 137.765 207.186 138.452 206.963C139.139 206.74 139.702 206.378 140.141 205.877C140.571 205.394 140.845 204.825 140.962 204.171C141.079 203.517 141.02 202.827 140.785 202.102L140.703 201.849C140.463 201.111 140.089 200.509 139.58 200.044C139.058 199.583 138.447 199.287 137.746 199.157C137.049 199.04 136.312 199.107 135.534 199.359C134.912 199.561 134.376 199.85 133.925 200.226C133.465 200.618 133.119 201.096 132.886 201.659L131.684 200.932C131.973 200.236 132.416 199.634 133.01 199.126C133.591 198.623 134.296 198.236 135.126 197.967Z" fill="white"/>
<path d="M122.843 199.813L124.156 209.492L123.69 209.101L128.084 208.505L128.279 209.943L118.661 211.248L118.466 209.81L122.88 209.211L122.536 209.712L121.223 200.033L122.843 199.813Z" fill="white"/>
<path d="M106.955 206.859C105.593 206.819 104.564 206.493 103.867 205.88C103.171 205.267 102.833 204.409 102.854 203.306C102.877 202.148 103.282 201.263 104.07 200.652C104.845 200.054 105.947 199.775 107.377 199.816L111.851 199.923L111.643 210.69L109.988 210.658L110.06 206.94L106.955 206.859ZM107.476 201.065C106.522 201.033 105.797 201.21 105.299 201.595C104.787 201.994 104.524 202.575 104.509 203.338C104.494 204.114 104.728 204.684 105.212 205.047C105.695 205.411 106.42 205.609 107.387 205.641L110.083 205.734L110.171 201.158L107.476 201.065Z" fill="white"/>
<path d="M89.2264 195.751L86.0974 206.055L81.4639 204.647C80.2778 204.287 79.4151 203.775 78.8759 203.113C78.3327 202.464 78.1918 201.709 78.453 200.849C78.7103 200.002 79.2341 199.449 80.0243 199.191C80.7975 198.942 81.712 198.978 82.7678 199.298L82.3575 199.665C81.1193 199.289 80.2827 198.785 79.8477 198.155C79.3998 197.52 79.3084 196.766 79.5736 195.893C79.8467 194.994 80.3908 194.397 81.206 194.104C82.0041 193.82 83.081 193.884 84.4365 194.296L89.2264 195.751ZM87.3274 196.52L84.1602 195.557C83.313 195.3 82.6347 195.236 82.1254 195.366C81.6122 195.509 81.2665 195.874 81.0884 196.46C80.9103 197.047 80.9752 197.536 81.2831 197.929C81.587 198.334 82.156 198.664 82.9902 198.918L86.2943 199.922L87.3274 196.52ZM85.944 201.075L82.9527 200.166C82.1837 199.932 81.5537 199.898 81.0625 200.062C80.5714 200.226 80.2447 200.575 80.0824 201.109C79.9161 201.657 79.9935 202.129 80.3144 202.525C80.6353 202.922 81.1803 203.237 81.9493 203.471L84.9406 204.38L85.944 201.075Z" fill="white"/>
<path d="M75.4889 189.79L70.5702 199.369L69.0981 198.613L72.8874 191.233L62.9005 195.428L61.592 194.756L66.5106 185.176L67.9646 185.923L64.1753 193.303L74.1621 189.108L75.4889 189.79Z" fill="white"/>
<path d="M55.8128 176.783L50.5411 183.503L54.4789 186.595L55.9592 184.873C56.4178 184.333 56.8841 183.815 57.3581 183.321C57.8129 182.83 58.2716 182.411 58.7342 182.064C59.1861 181.708 59.6231 181.471 60.0453 181.353C60.4568 181.225 60.84 181.266 61.1951 181.476L62.3044 182.71C61.9806 182.439 61.6149 182.342 61.2072 182.421C60.7995 182.499 60.3782 182.705 59.9431 183.039C59.4889 183.375 59.0206 183.795 58.5383 184.3C58.0559 184.805 57.5716 185.334 57.0855 185.887L54.7246 188.632L48.3599 183.635L54.5271 175.773L55.8128 176.783ZM65.1012 179.84L62.6419 182.975L52.8055 175.253L55.2648 172.118L56.4863 173.077L54.9099 175.087L62.3032 180.891L63.8797 178.881L65.1012 179.84Z" fill="white"/>
<path d="M48.3362 166.613C49.0908 167.456 49.5821 168.351 49.8101 169.299C50.0279 170.257 49.9866 171.19 49.6862 172.1C49.3857 173.01 48.84 173.82 48.049 174.529C47.258 175.239 46.4082 175.699 45.4997 175.91C44.572 176.12 43.6676 176.08 42.7864 175.791C41.895 175.51 41.1084 174.99 40.4266 174.229C39.7447 173.468 39.3125 172.639 39.13 171.741C38.9475 170.844 39.0156 169.95 39.3342 169.06C39.6426 168.18 40.2025 167.376 41.0138 166.648C41.0645 166.603 41.1254 166.548 41.1964 166.484C41.2674 166.421 41.3378 166.367 41.4078 166.322L47.599 173.231L46.7015 174.036L41.083 167.766L41.8541 167.953C41.2963 168.453 40.9135 169.016 40.7058 169.642C40.4788 170.266 40.43 170.896 40.5594 171.53C40.6786 172.173 40.9791 172.764 41.461 173.301C41.9428 173.839 42.5014 174.207 43.1368 174.406C43.7529 174.604 44.3836 174.623 45.0288 174.466C45.6739 174.308 46.2805 173.974 46.8484 173.465L47.0462 173.288C47.6242 172.769 48.0227 172.183 48.2416 171.529C48.4515 170.865 48.474 170.186 48.3094 169.492C48.1346 168.807 47.7744 168.16 47.2289 167.552C46.7925 167.065 46.3114 166.691 45.7855 166.431C45.2403 166.17 44.6635 166.046 44.0551 166.061L44.2324 164.667C44.9856 164.65 45.7147 164.811 46.4197 165.148C47.1155 165.476 47.7544 165.964 48.3362 166.613Z" fill="white"/>
<path d="M40.4636 154.035C41.0206 154.939 41.3198 155.867 41.3611 156.818C41.3907 157.775 41.1768 158.675 40.7192 159.517C40.2617 160.359 39.5806 161.059 38.6759 161.616C37.7597 162.18 36.8286 162.474 35.8828 162.497C34.9298 162.508 34.0419 162.287 33.2191 161.834C32.3776 161.376 31.6783 160.695 31.1213 159.79C30.5643 158.885 30.271 157.954 30.2413 156.996C30.1929 156.034 30.3952 155.141 30.8483 154.318C31.2943 153.483 31.9754 152.784 32.8916 152.219C33.7963 151.662 34.7273 151.368 35.6848 151.339C36.635 151.297 37.5345 151.511 38.3832 151.98C39.2132 152.445 39.9066 153.13 40.4636 154.035ZM39.2284 154.796C38.8357 154.157 38.3501 153.681 37.7719 153.365C37.1748 153.045 36.5261 152.9 35.8257 152.932C35.1252 152.963 34.4329 153.19 33.7486 153.611C33.0527 154.04 32.5388 154.557 32.207 155.161C31.8636 155.773 31.7063 156.414 31.735 157.084C31.745 157.75 31.9464 158.402 32.3391 159.04C32.7247 159.666 33.2161 160.14 33.8131 160.46C34.3914 160.776 35.0307 160.918 35.7312 160.886C36.42 160.862 37.1124 160.635 37.8083 160.206C38.4926 159.785 39.0064 159.268 39.3498 158.657C39.6932 158.045 39.8599 157.407 39.8499 156.741C39.8212 156.07 39.6141 155.422 39.2284 154.796Z" fill="white"/>
<path d="M29.6469 135.419C29.7206 135.695 29.7185 135.978 29.6404 136.267C29.5624 136.555 29.4242 136.804 29.2259 137.012C29.0277 137.22 28.7706 137.366 28.4547 137.45C28.1388 137.535 27.8431 137.536 27.5676 137.455C27.2921 137.373 27.0486 137.227 26.8371 137.015C26.6256 136.804 26.4829 136.56 26.4092 136.284C26.3319 135.994 26.3341 135.711 26.4156 135.436C26.4937 135.147 26.6318 134.899 26.8301 134.691C27.0284 134.483 27.2855 134.336 27.6013 134.252C27.9172 134.168 28.2129 134.166 28.4884 134.248C28.764 134.329 29.0075 134.476 29.219 134.687C29.427 134.885 29.5696 135.129 29.6469 135.419Z" fill="white"/>
<path d="M31.3668 116.198L20.6033 116.531L20.3013 106.748L31.0647 106.415L31.1152 108.049L21.3729 108.35L21.7892 107.928L22.0156 115.261L21.5734 114.845L31.3157 114.544L31.3668 116.198Z" fill="white"/>
<path d="M33.7167 95.101C33.5417 96.1491 33.1573 97.0447 32.5637 97.788C31.9565 98.5291 31.2039 99.0662 30.3058 99.3995C29.4076 99.7329 28.4346 99.8119 27.3865 99.6368C26.3251 99.4594 25.4305 99.0682 24.7029 98.4632C23.9775 97.8448 23.4537 97.0943 23.1315 96.2118C22.798 95.3136 22.7188 94.3404 22.8938 93.2924C23.0688 92.2444 23.4599 91.3498 24.067 90.6088C24.663 89.8521 25.4021 89.3126 26.2846 88.9905C27.1693 88.655 28.1424 88.5759 29.2038 88.7533C30.2519 88.9284 31.1464 89.3196 31.8875 89.9268C32.6308 90.5206 33.1681 91.2734 33.4992 92.185C33.8192 93.081 33.8917 94.053 33.7167 95.101ZM32.2857 94.8619C32.4091 94.1229 32.3567 93.4443 32.1285 92.8261C31.889 92.1922 31.4951 91.6567 30.9465 91.2198C30.398 90.7828 29.7273 90.4981 28.9346 90.3656C28.1284 90.2309 27.4017 90.2821 26.7544 90.5192C26.0937 90.7541 25.5539 91.1335 25.1349 91.6574C24.7048 92.1656 24.428 92.7892 24.3046 93.5282C24.1835 94.2537 24.2426 94.9335 24.4821 95.5674C24.7103 96.1856 25.0987 96.7132 25.6472 97.1501C26.1823 97.5848 26.853 97.8696 27.6591 98.0043C28.4519 98.1367 29.1786 98.0855 29.8393 97.8507C30.5 97.6158 31.0455 97.2443 31.4756 96.7361C31.8945 96.2122 32.1646 95.5875 32.2857 94.8619Z" fill="white"/>
<path d="M38.6006 80.9472C38.2379 81.9604 37.6938 82.7929 36.9685 83.4447C36.235 84.079 35.4032 84.4828 34.473 84.6559C33.53 84.8245 32.552 84.7273 31.5389 84.3643C30.5258 84.0013 29.7148 83.4574 29.1061 82.7329C28.4974 82.0083 28.1174 81.1703 27.966 80.2189C27.8065 79.25 27.9081 78.259 28.2708 77.2458C28.5831 76.3737 29.0386 75.647 29.6374 75.0657C30.2362 74.4844 30.9489 74.1103 31.7756 73.9434L32.1248 75.3926C31.5007 75.5597 30.9773 75.8497 30.5545 76.2625C30.1318 76.6754 29.8171 77.1704 29.6105 77.7476C29.3579 78.453 29.2909 79.1452 29.4095 79.8244C29.5198 80.4862 29.8061 81.0808 30.2684 81.6082C30.7179 82.131 31.3273 82.5303 32.0968 82.806C32.8662 83.0817 33.5969 83.1626 34.2888 83.0488C34.9678 82.9304 35.5664 82.6528 36.0844 82.2162C36.5942 81.7622 36.9754 81.1825 37.228 80.4771C37.4346 79.9 37.5121 79.3199 37.4603 78.737C37.3957 78.1496 37.1754 77.5931 36.7992 77.0676L37.9888 76.1698C38.5087 76.8191 38.8219 77.5608 38.9285 78.3949C39.0222 79.2243 38.9129 80.0751 38.6006 80.9472Z" fill="white"/>
<path d="M42.8699 72.9454L33.4609 67.7076L34.2754 66.2433L43.7233 66.0303L43.3956 66.6196L38.6458 58.3862L39.3808 57.0647L48.7997 62.2846L48.0746 63.5882L40.2904 59.2549L40.5723 59.0844L44.8838 66.6764L44.5263 67.3192L35.6875 67.6141L35.8028 67.2807L43.6049 71.624L42.8699 72.9454Z" fill="white"/>
<path d="M56.0832 55.6698C55.3886 56.4739 54.5945 57.0389 53.7009 57.3648C52.797 57.6818 51.8749 57.7489 50.9346 57.5662C49.9943 57.3835 49.1222 56.9447 48.3185 56.2498C47.5044 55.5459 46.944 54.7463 46.6374 53.8509C46.3397 52.9452 46.2828 52.0317 46.4668 51.1103C46.6494 50.1696 47.088 49.2972 47.7826 48.4932C48.4772 47.6891 49.2765 47.1286 50.1804 46.8116C51.0829 46.4754 51.9947 46.3993 52.9158 46.5834C53.8458 46.7572 54.7178 47.196 55.5319 47.8999C56.3357 48.5948 56.896 49.3944 57.2129 50.2987C57.5387 51.1927 57.6059 52.1152 57.4145 53.0661C57.2216 53.9979 56.7778 54.8658 56.0832 55.6698ZM54.9857 54.721C55.4755 54.154 55.7838 53.5471 55.9105 52.9003C56.0358 52.2343 55.9779 51.572 55.7368 50.9134C55.4958 50.2547 55.0712 49.6626 54.4632 49.1369C53.8449 48.6023 53.1978 48.2679 52.5217 48.1336C51.8353 47.9904 51.177 48.0335 50.5468 48.2629C49.9151 48.4731 49.3544 48.8617 48.8646 49.4287C48.3837 49.9853 48.0806 50.5967 47.9553 51.2627C47.8286 51.9095 47.8858 52.5622 48.1269 53.2208C48.3576 53.8706 48.7822 54.4627 49.4005 54.9973C50.0085 55.523 50.6556 55.8574 51.342 56.0006C52.0284 56.1438 52.6874 56.1103 53.319 55.9001C53.9493 55.6707 54.5048 55.2776 54.9857 54.721Z" fill="white"/>
<path d="M65.831 47.3519L59.6912 39.7556L60.2915 39.8482L56.8441 42.6368L55.9321 41.5085L63.4784 35.4043L64.3903 36.5326L60.927 39.3341L60.9622 38.7275L67.1019 46.3238L65.831 47.3519Z" fill="white"/>
<path d="M79.6667 38.9371C78.8792 39.3985 78.0556 39.6364 77.1958 39.6508C76.336 39.6652 75.5057 39.4334 74.7048 38.9554C73.9157 38.4705 73.2252 37.7225 72.6332 36.7115C72.0274 35.6771 71.7037 34.7063 71.6619 33.7992C71.625 32.8734 71.8231 32.039 72.2561 31.2957C72.6891 30.5525 73.3111 29.9433 74.1221 29.468C75.0153 28.9446 75.9257 28.6795 76.8531 28.6728C77.7924 28.6592 78.6683 28.888 79.4809 29.3592C80.3052 29.8235 80.9962 30.5317 81.5538 31.4839C82.1044 32.4243 82.3806 33.3677 82.3822 34.3141C82.3956 35.2536 82.1668 36.1298 81.6956 36.9428C81.2362 37.7488 80.5599 38.4136 79.6667 38.9371ZM76.77 45.1108L69.3256 32.3973L70.6831 31.6018L72.2525 34.282L73.3134 36.3366L74.6461 38.2082L78.198 44.274L76.77 45.1108ZM78.8278 37.7471C79.4625 37.3752 79.944 36.9035 80.2725 36.3321C80.6126 35.7538 80.7748 35.114 80.7588 34.4129C80.7429 33.7117 80.5319 33.0143 80.1258 32.3207C79.7128 31.6154 79.2079 31.0902 78.6112 30.7451C78.0076 30.3883 77.3671 30.2111 76.6896 30.2133C76.0239 30.2087 75.3737 30.3924 74.7391 30.7643C74.1044 31.1363 73.6204 31.6172 73.2871 32.2073C72.9538 32.7973 72.7951 33.443 72.8111 34.1442C72.8201 34.8336 73.0311 35.531 73.4441 36.2363C73.8503 36.9299 74.3551 37.4551 74.9587 37.8119C75.5623 38.1687 76.1994 38.3401 76.8699 38.326C77.5405 38.312 78.1932 38.119 78.8278 37.7471Z" fill="white"/>
<path d="M94.1474 33.7218C93.0801 34.0952 92.0651 34.205 91.1021 34.0512C90.1347 33.8845 89.2889 33.4877 88.5646 32.8607C87.8404 32.2338 87.3029 31.4187 86.9523 30.4157C86.6017 29.4127 86.5037 28.4512 86.6583 27.5311C86.8212 26.5938 87.2056 25.7738 87.8114 25.0711C88.4127 24.3556 89.1956 23.8292 90.1599 23.4918C91.1243 23.1544 92.0558 23.0739 92.9544 23.2502C93.853 23.4265 94.6516 23.8326 95.3502 24.4686C96.0442 25.0917 96.571 25.9176 96.9307 26.9464C96.9531 27.0107 96.9801 27.0878 97.0116 27.1778C97.043 27.2679 97.0658 27.3537 97.0799 27.4353L88.3235 30.4989L87.9256 29.3608L95.872 26.5807L95.4032 27.221C95.1559 26.5137 94.7836 25.944 94.2862 25.5119C93.7972 25.0624 93.2351 24.7756 92.6 24.6514C91.9605 24.5143 91.2999 24.565 90.6185 24.8034C89.937 25.0419 89.3824 25.4163 88.9547 25.9267C88.5354 26.4198 88.2745 26.9945 88.1721 27.651C88.0697 28.3074 88.1443 28.9957 88.396 29.7158L88.4837 29.9665C88.7399 30.6995 89.1277 31.2927 89.6469 31.746C90.179 32.1949 90.797 32.4766 91.5009 32.5912C92.2003 32.6928 92.9357 32.6087 93.7072 32.3388C94.3244 32.1229 94.8542 31.8221 95.2966 31.4364C95.7474 31.0333 96.0828 30.548 96.3028 29.9803L97.5214 30.6797C97.2473 31.3817 96.819 31.9934 96.2364 32.5147C95.6666 33.0316 94.9703 33.4339 94.1474 33.7218Z" fill="white"/>
<path d="M106.203 31.5367L104.668 21.8907L105.142 22.2703L100.764 22.9677L100.536 21.5349L110.121 20.0085L110.349 21.4413L105.95 22.1418L106.283 21.6336L107.817 31.2796L106.203 31.5367Z" fill="white"/>
<path d="M121.677 24.0126C123.039 24.0157 124.077 24.3142 124.79 24.9081C125.503 25.502 125.864 26.3506 125.872 27.454C125.881 28.6119 125.5 29.5071 124.728 30.1397C123.97 30.7586 122.876 31.0668 121.445 31.0642L116.97 31.0783L116.887 20.3101L118.542 20.2973L118.571 24.0161L121.677 24.0126ZM121.313 29.8187C122.267 29.825 122.987 29.6287 123.474 29.2299C123.975 28.8173 124.223 28.2296 124.217 27.4668C124.211 26.6903 123.961 26.1269 123.468 25.7765C122.975 25.4261 122.245 25.2479 121.278 25.2417L118.58 25.2217L118.616 29.7987L121.313 29.8187Z" fill="white"/>
<path d="M139.929 34.5655L142.784 24.1823L147.453 25.4672C148.648 25.7961 149.524 26.2844 150.081 26.932C150.641 27.5666 150.802 28.3173 150.563 29.1842C150.329 30.038 149.82 30.6044 149.037 30.8834C148.27 31.1529 147.355 31.1412 146.291 30.8485L146.692 30.4712C147.939 30.8146 148.789 31.2956 149.241 31.9144C149.705 32.5368 149.817 33.288 149.575 34.168C149.325 35.0743 148.797 35.6849 147.99 35.9997C147.2 36.305 146.122 36.2697 144.756 35.8938L139.929 34.5655ZM141.807 33.7472L144.998 34.6254C145.852 34.8604 146.532 34.9061 147.038 34.7627C147.547 34.6061 147.883 34.2323 148.045 33.6412C148.208 33.0501 148.13 32.5625 147.812 32.1782C147.497 31.7808 146.92 31.4665 146.079 31.2351L142.749 30.3189L141.807 33.7472ZM143.069 29.1565L146.083 29.9859C146.858 30.1992 147.489 30.2173 147.976 30.0404C148.462 29.8635 148.78 29.5058 148.928 28.9672C149.079 28.4155 148.99 27.9458 148.658 27.5579C148.327 27.17 147.774 26.8695 146.999 26.6562L143.985 25.8267L143.069 29.1565Z" fill="white"/>
<path d="M153.994 40.185L158.662 30.4809L160.154 31.1989L156.557 38.6749L166.432 34.2217L167.757 34.8599L163.089 44.564L161.616 43.8548L165.213 36.3788L155.338 40.8321L153.994 40.185Z" fill="white"/>
<path d="M173.951 52.6018L179.049 45.7491L175.034 42.7592L173.598 44.518C173.153 45.07 172.7 45.5989 172.239 46.1047C171.797 46.6077 171.349 47.0385 170.895 47.3971C170.453 47.7639 170.022 48.012 169.603 48.1416C169.195 48.2794 168.811 48.248 168.45 48.0477L167.31 46.8419C167.64 47.105 168.008 47.1923 168.414 47.1036C168.82 47.0149 169.236 46.7982 169.662 46.4533C170.107 46.1056 170.565 45.6734 171.034 45.1567C171.503 44.6399 171.974 44.0987 172.446 43.5329L174.736 40.7288L181.226 45.5614L175.262 53.5781L173.951 52.6018ZM164.587 49.7824L166.966 46.5856L176.996 54.0542L174.617 57.251L173.372 56.3236L174.897 54.2743L167.357 48.6607L165.833 50.7099L164.587 49.7824Z" fill="white"/>
<path d="M181.866 62.7399C181.093 61.9146 180.582 61.0303 180.334 60.0871C180.095 59.1346 180.116 58.2002 180.396 57.284C180.677 56.3678 181.205 55.5464 181.98 54.8199C182.756 54.0933 183.595 53.6147 184.499 53.384C185.422 53.1539 186.327 53.1739 187.214 53.4439C188.111 53.7046 188.909 54.2079 189.607 54.9537C190.306 55.6995 190.756 56.5192 190.958 57.4126C191.16 58.3061 191.111 59.201 190.812 60.0973C190.523 60.9844 189.981 61.8004 189.186 62.5456C189.136 62.5922 189.076 62.6481 189.007 62.7133C188.937 62.7785 188.868 62.834 188.799 62.88L182.458 56.108L183.338 55.2836L189.092 61.4292L188.317 61.2592C188.864 60.7469 189.234 60.1758 189.428 59.546C189.642 58.9167 189.677 58.2865 189.533 57.6552C189.4 57.0146 189.087 56.4308 188.593 55.9038C188.1 55.3767 187.533 55.0208 186.894 54.836C186.274 54.6519 185.643 54.6457 185.001 54.8175C184.36 54.9893 183.76 55.336 183.204 55.8576L183.01 56.0392C182.443 56.5702 182.058 57.1648 181.853 57.8233C181.658 58.4917 181.65 59.171 181.83 59.8613C182.019 60.5423 182.394 61.1811 182.952 61.7778C183.399 62.2551 183.888 62.6181 184.42 62.8669C184.971 63.1162 185.55 63.2268 186.158 63.1985L186.011 64.5962C185.258 64.6294 184.526 64.485 183.814 64.1629C183.111 63.8507 182.462 63.3764 181.866 62.7399Z" fill="white"/>
<path d="M189.923 74.8412C189.343 73.9509 189.02 73.0312 188.954 72.082C188.9 71.1253 189.091 70.2203 189.526 69.367C189.962 68.5136 190.625 67.7967 191.515 67.2163C192.416 66.6285 193.34 66.3111 194.285 66.2641C195.237 66.2285 196.13 66.4266 196.964 66.8585C197.817 67.2942 198.534 67.9573 199.114 68.8475C199.694 69.7378 200.011 70.6612 200.066 71.6179C200.139 72.5785 199.959 73.4761 199.527 74.3106C199.103 75.1565 198.44 75.8734 197.539 76.4612C196.649 77.0416 195.726 77.359 194.769 77.4135C193.82 77.4793 192.916 77.2886 192.055 76.8414C191.214 76.3982 190.503 75.7314 189.923 74.8412ZM191.138 74.0487C191.547 74.6765 192.045 75.1407 192.631 75.4415C193.236 75.7463 193.888 75.8739 194.587 75.8244C195.287 75.7749 195.973 75.5306 196.646 75.0916C197.331 74.6452 197.831 74.1156 198.148 73.5028C198.475 72.8826 198.616 72.2379 198.57 71.5685C198.543 70.9031 198.325 70.2566 197.916 69.6288C197.514 69.0125 197.011 68.5519 196.406 68.2472C195.82 67.9464 195.177 67.8208 194.478 67.8703C193.79 67.9123 193.103 68.1566 192.419 68.6031C191.745 69.0421 191.245 69.5717 190.917 70.1918C190.59 70.812 190.44 71.4548 190.467 72.1202C190.513 72.7896 190.736 73.4324 191.138 74.0487Z" fill="white"/>
<path d="M201.368 93.3355C201.287 93.0612 201.281 92.7786 201.352 92.4879C201.422 92.1972 201.554 91.9452 201.746 91.732C201.939 91.5188 202.192 91.3658 202.506 91.2731C202.819 91.1804 203.115 91.1711 203.392 91.2453C203.67 91.3195 203.917 91.4595 204.134 91.6652C204.351 91.8709 204.5 92.111 204.581 92.3853C204.666 92.6728 204.672 92.9553 204.597 93.2329C204.527 93.5236 204.395 93.7756 204.203 93.9888C204.01 94.2021 203.757 94.355 203.443 94.4477C203.13 94.5404 202.834 94.5497 202.557 94.4755C202.279 94.4013 202.032 94.2614 201.815 94.0556C201.602 93.863 201.453 93.6229 201.368 93.3355Z" fill="white"/>
<defs>
<filter id="filter0_b_246_918" x="-62.4844" y="-62.7823" width="356.549" height="356.642" filterUnits="userSpaceOnUse" color-interpolation-filters="sRGB">
<feFlood flood-opacity="0" result="BackgroundImageFix"/>
<feGaussianBlur in="BackgroundImageFix" stdDeviation="31.4366"/>
<feComposite in2="SourceAlpha" operator="in" result="effect1_backgroundBlur_246_918"/>
<feBlend mode="normal" in="SourceGraphic" in2="effect1_backgroundBlur_246_918" result="shape"/>
</filter>
</defs>
</svg>
